# xmcd
#
# Track frame offsets: 
#        150
#        24625
#        61162
#        80819
#        139201
#        166943
#        217349
#        283114
#
# Disc length: 4488 seconds
#
# Revision: 0
# Processed by: cddbd v1.5.2PL0 Copyright (c) Steve Scherf et al.
# Submitted via: ExactAudioCopy v0.99pb4
#
DISCID=7a118608
DTITLE=Allman Brothers Band - 1973-12-31 Live at the Cow Palace cd2
DYEAR=1973
DGENRE=Blues
TTITLE0=Come and go Blues
TTITLE1=Ramblin' man
TTITLE2=Trouble no more
TTITLE3=Jessica
TTITLE4=Les Brers in A minor
TTITLE5=Drums solo
TTITLE6=Les Brers in A minor
TTITLE7=Whipping post
EXTD=
EXTT0=
EXTT1=
EXTT2=
EXTT3=
EXTT4=
EXTT5=
EXTT6=
EXTT7=
PLAYORDER=
